# xmcd
#
# Track frame offsets:
#	150
#	13926
#	29183
#	45661
#	60109
#	81586
#	98983
#	117384
#	129746
#	148113
#	161217
#	174772
#	190583
#	204788
#	220550
#	232498
#	246299
#	251065
#
# Disc length: 3444 seconds
#
# Revision: 0
# Processed by: cddbd v1.5.1PL0 Copyright (c) Steve Scherf et al.
# Submitted via: dBpowerAMP V4.0
#
DISCID=080d7212
DTITLE=Orange Invasion - TigerRoar
DYEAR=1900
DGENRE=Pop
TTITLE0=Mysterious Ways
TTITLE1=James Dean
TTITLE2=Anytime
TTITLE3=Iris
TTITLE4=Cry Me a River
TTITLE5=Unwell
TTITLE6=Change in my Life
TTITLE7=King of Wishful Thinking
TTITLE8=Best I Ever Had
TTITLE9=Lose Yourself
TTITLE10=Rosa Parks
TTITLE11=When You Come Back Down
TTITLE12=Carolina Girls
TTITLE13=These Days
TTITLE14=Never There
TTITLE15=My Girl
TTITLE16=Alma Mater
TTITLE17=Tiger Rag
EXTD=Clemson University
EXTT0=
EXTT1=
EXTT2=
EXTT3=
EXTT4=
EXTT5=
EXTT6=
EXTT7=
EXTT8=
EXTT9=
EXTT10=
EXTT11=
EXTT12=
EXTT13=
EXTT14=
EXTT15=
EXTT16=
EXTT17=
PLAYORDER=
